{"title":"Captain America The Winter Soldier 2014 NEW (FIXED) 720p CAM x26","uid":9857371,"size":2169492088,"categoryP":"video","categoryS":"movies","magnet":"?xt=urn:btih:23a90511ad05baaef5f2388839941ab17beafd02&amp;dn=Captain+America+The+Winter+Soldier+2014+NEW+%28FIXED%29+720p+CAM+x26&amp;tr=udp%3A%2F%2Ftracker.openbittorrent.com%3A80&amp;tr=udp%3A%2F%2Fopen.demonii.com%3A1337&amp;tr=udp%3A%2F%2Ftracker.coppersurfer.tk%3A6969&amp;tr=udp%3A%2F%2Fexodus.desync.com%3A6969","seeders":7,"leechers":0,"uploader":"shawnmurthy","files":-1,"time":1396234207,"description":"THE SOURCE IS EVE...EVE HAD DONE A GOOD JOB ON THIS BUT THERE WAS STILL SOME WORK TO BE DONE ON IT....THE SHAKY START I TRIED TO DO SOMETHING ABOUT IT, BUT IF I MESSED AROUND WITH IT THE QUALITY OF A CAM WITH BE WORSE AND WITH A CAM YOU CAN NOT EXPECT TO LOOSE ANY QUALITY.....BRIGHTENED THE ENTIRE VIDEO SINCE A LOT OF THIS VIDEO HAS BEEN SHOT IN THE DARK....THE BLURRINESS I WAS ABLE TO REMOVE MOST OF IT BUT SOME OF IT WAS STILL THERE...DID THE BEST I COULD ON THAT....THE AUDIO HAD SOME ECHOING....WAS ABLE TO BRING IT DOWN AND SYNC IT UP....UNTIL NEW SHOURCE...ENJOY \n\nSCREEN SHOTS\n &lt;a href=&quot;\nhttp://pimp4003.net/torrents.php?id=23a90511ad05baaef5f2388839941ab17beafd02&quot; rel=&quot;nofollow&quot; target=&quot;_NEW&quot;&gt;\nhttp://pimp4003.net/torrents.php?id=23a90511ad05baaef5f2388839941ab17beafd02&lt;/a&gt;\n\nCaptain America The Winter Soldier 2014 NEW (FIXED) 720p CAM x264 Pimp4003\n &lt;a href=&quot;\nhttp://www.imdb.com/title/tt1843866/&quot; rel=&quot;nofollow&quot; target=&quot;_NEW&quot;&gt;\nhttp://www.imdb.com/title/tt1843866/&lt;/a&gt;\n\nSteve Rogers struggles to embrace his role in the modern world and battles a new threat from old history: the Soviet agent known as the Winter Soldier.\n\nDirectors: Anthony Russo, Joe Russo, 1 more credit Â»\nWriters: Christopher Markus (screenplay), Stephen McFeely (screenplay), 3 more credits Â»\nStars: Chris Evans, Frank Grillo, Sebastian Stan | See full cast and crew Â»\n\nVideo\nID                                       : 1\nFormat                                   : AVC\nFormat/Info                              : Advanced Video Codec\nFormat profile                           : &lt;a class=&quot;__cf_email__&quot; href=&quot;/cdn-cgi/l/email-protection&quot; data-cfemail=&quot;cd85a4aaa58d81fee3fc&quot;&gt;[email&amp;#160;protected]&lt;/a&gt;&lt;script cf-hash='f9e31' type=&quot;text/javascript&quot;&gt;\n/* &lt;![CDATA[ */!function(){try{var t=&quot;currentScript&quot;in document?document.currentScript:function(){for(var t=document.getElementsByTagName(&quot;script&quot;),e=t.length;e--;)if(t[e].getAttribute(&quot;cf-hash&quot;))return t[e]}();if(t&amp;&amp;t.previousSibling){var e,r,n,i,c=t.previousSibling,a=c.getAttribute(&quot;data-cfemail&quot;);if(a){for(e=&quot;&quot;,r=parseInt(a.substr(0,2),16),n=2;a.length-n;n+=2)i=parseInt(a.substr(n,2),16)^r,e+=String.fromCharCode(i);e=document.createTextNode(e),c.parentNode.replaceChild(e,c)}}}catch(u){}}();/* ]]&gt; */&lt;/script&gt;\nFormat settings, CABAC                   : Yes\nFormat settings, ReFrames                : 5 frames\nFormat settings, GOP                     : M=4, N=13\nCodec ID                                 : avc1\nCodec ID/Info                            : Advanced Video Coding\nDuration                                 : 2h 4mn\nBit rate                                 : 2 144 Kbps\nWidth                                    : 1 280 pixels\nHeight                                   : 640 pixels\nDisplay aspect ratio                     : 2.000\nFrame rate mode                          : Constant\nFrame rate                               : 25.000 fps\nColor space                              : YUV\nChroma subsampling                       : 4:2:0\nBit depth                                : 8 bits\nScan type                                : Progressive\nBits/(Pixel*Frame)                       : 0.105\nStream size                              : 1.87 GiB (93%)\nWriting library                          : x264 core 110\nEncoding settings                        : cabac=1 / ref=5 / deblock=1:0:0 / analyse=0x3:0x133 / me=hex / subme=8 / psy=1 / psy_rd=1.00:0.00 / mixed_ref=1 / me_range=16 / chroma_me=0 / trellis=1 / 8x8dct=1 / cqm=0 / deadzone=21,11 / fast_pskip=1 / chroma_qp_offset=-2 / threads=8 / sliced_threads=0 / nr=0 / decimate=1 / interlaced=0 / constrained_intra=0 / bframes=3 / b_pyramid=0 / b_adapt=0 / b_bias=0 / direct=3 / weightb=1 / open_gop=0 / weightp=0 / keyint=13 / keyint_min=7 / scenecut=0 / intra_refresh=0 / rc_lookahead=13 / rc=abr / mbtree=1 / bitrate=2144 / ratetol=1.0 / qcomp=0.00 / qpmin=10 / qpmax=51 / qpstep=4 / ip_ratio=1.41 / aq=1:1.00\n\nAudio\nID                                       : 2\nFormat                                   : AAC\nFormat/Info                              : Advanced Audio Codec\nFormat profile                           : LC\nCodec ID                                 : 40\nDuration                                 : 2h 4mn\nBit rate mode                            : Variable\nBit rate                                 : 165 Kbps\nChannel(s)                               : 2 channels\nChannel positions                        : Front: L R\nSampling rate                            : 48.0 KHz\nCompression mode                         : Lossy\nStream size                              : 147 MiB (7%)\n","torrent":{"xt":"urn:btih:23a90511ad05baaef5f2388839941ab17beafd02","amp;dn":"Captain+America+The+Winter+Soldier+2014+NEW+%28FIXED%29+720p+CAM+x26","amp;tr":["udp%3A%2F%2Ftracker.openbittorrent.com%3A80","udp%3A%2F%2Fopen.demonii.com%3A1337","udp%3A%2F%2Ftracker.coppersurfer.tk%3A6969","udp%3A%2F%2Fexodus.desync.com%3A6969"],"infoHash":"23a90511ad05baaef5f2388839941ab17beafd02","infoHashBuffer":{"type":"Buffer","data":[35,169,5,17,173,5,186,174,245,242,56,136,57,148,26,177,123,234,253,2]},"announce":[],"urlList":[]}}